<?xml version="1.0" encoding="UTF-8" standalone="no"?>
<svg
   fill="none"
   viewBox="0 0 1920 1080"
   version="1.1"
   id="svg8"
   sodipodi:docname="logoTest.svg"
   inkscape:version="1.2.1 (9c6d41e410, 2022-07-14, custom)"
   xmlns:inkscape="http://www.inkscape.org/namespaces/inkscape"
   xmlns:sodipodi="http://sodipodi.sourceforge.net/DTD/sodipodi-0.dtd"
   xmlns="http://www.w3.org/2000/svg"
   xmlns:svg="http://www.w3.org/2000/svg">
  <defs
     id="defs12" />
  <path
     id="path2"
     d="M 573.5 113.5 L 546.32031 170.5 L 519.5 170.5 L 506.5 194.5 L 534.875 194.5 L 482.89844 303.5 L 445.5 303.5 L 423.5 345.5 L 462.87109 345.5 L 317.43359 650.5 L 260.5 650.5 L 219.5 727.5 L 280.7168 727.5 L 192.5 912.5 L 391.5 912.5 L 438.50195 727.5 L 775.49805 727.5 L 822.5 912.5 L 1021.5 912.5 L 933.2832 727.5 L 994.5 727.5 L 953.5 650.5 L 896.56641 650.5 L 751.12891 345.5 L 790.5 345.5 L 768.5 303.5 L 731.10156 303.5 L 679.125 194.5 L 707.5 194.5 L 694.5 170.5 L 667.67969 170.5 L 640.5 113.5 L 619.5 113.5 L 633.98242 170.5 L 580.01758 170.5 L 594.5 113.5 L 573.5 113.5 z M 573.91992 194.5 L 640.08008 194.5 L 667.77344 303.5 L 546.22656 303.5 L 573.91992 194.5 z M 535.55664 345.5 L 678.44336 345.5 L 755.93359 650.5 L 458.06641 650.5 L 535.55664 345.5 z "
     style="fill:#0072b0;fill-opacity:1" />
  <path
     fill="#0072b0"
     d="M1391.5 521c-127-68-190.5-60-306.5 1.5-27.6 0-40.17 20.333-43 30.5 17.83 109.5 119.7 325.7 384.5 314.5 264.8-11.2 348-387.098 272-346.5-117 62.5-180 68-307 0zm.5-394c-216.532 0-393 176.468-393 393s176.468 393 393 393 393-176.468 393-393-176.468-393-393-393zm0 87c169.514 0 306 136.486 306 306s-136.486 306-306 306-306-136.486-306-306 136.486-306 306-306z"
     id="path6" />
</svg>
