<?xml version="1.0" standalone="no"?>
<!DOCTYPE svg PUBLIC "-//W3C//DTD SVG 20010904//EN"
 "http://www.w3.org/TR/2001/REC-SVG-20010904/DTD/svg10.dtd">
<svg version="1.0" xmlns="http://www.w3.org/2000/svg"
 width="1920.000000pt" height="1920.000000pt" viewBox="0 0 1920.000000 1920.000000"
 preserveAspectRatio="xMidYMid meet">
<metadata>
Created by potrace 1.14, written by Peter Selinger 2001-2017
</metadata>
<g transform="translate(0.000000,1920.000000) scale(0.100000,-0.100000)"
fill="#000000" stroke="none">
<path d="M5781 13870 c-33 -3 -57 -11 -62 -20 -24 -43 -139 -292 -139 -300 0
-6 -4 -10 -10 -10 -6 0 -9 -3 -8 -7 1 -5 -15 -44 -36 -88 -21 -44 -45 -95 -53
-113 -13 -32 -16 -33 -66 -32 -125 4 -227 -1 -227 -10 0 -5 -27 -60 -60 -122
-33 -61 -59 -113 -57 -115 2 -1 63 -3 135 -4 73 0 132 -4 132 -9 0 -4 -34 -78
-75 -165 -41 -86 -75 -161 -75 -166 0 -5 -4 -9 -10 -9 -5 0 -9 -3 -8 -7 1 -5
-10 -34 -25 -66 -15 -32 -27 -62 -27 -67 0 -6 -4 -10 -10 -10 -5 0 -10 -5 -10
-11 0 -6 -21 -55 -46 -108 -45 -92 -114 -239 -127 -271 -4 -8 -11 -22 -16 -30
-5 -8 -25 -48 -43 -87 -28 -61 -37 -73 -58 -74 -14 0 -97 -1 -186 -2 l-160 0
-40 -76 c-22 -42 -65 -123 -95 -181 -30 -58 -56 -107 -59 -110 -12 -12 -31
-52 -26 -57 2 -3 88 -5 190 -5 102 0 188 -3 191 -8 3 -4 -2 -13 -10 -20 -8 -7
-15 -17 -15 -23 0 -6 -19 -49 -42 -96 -23 -47 -43 -88 -43 -91 -1 -3 -23 -50
-49 -105 -67 -139 -149 -311 -208 -435 -28 -58 -69 -143 -91 -190 -23 -47 -42
-88 -42 -92 0 -4 -6 -13 -12 -19 -7 -7 -13 -18 -13 -24 0 -7 -15 -43 -34 -81
-74 -149 -146 -303 -146 -313 0 -6 -4 -11 -10 -11 -5 0 -10 -4 -10 -10 0 -15
-93 -215 -102 -218 -5 -2 -8 -10 -8 -17 0 -7 -22 -57 -49 -111 -27 -55 -66
-135 -86 -179 -21 -44 -60 -127 -88 -185 -27 -58 -71 -150 -97 -205 -63 -132
-137 -289 -221 -461 l-68 -141 -280 0 c-154 0 -282 -1 -284 -4 -2 -2 -30 -53
-62 -114 -32 -60 -70 -132 -85 -160 -15 -27 -49 -90 -75 -140 -26 -49 -52 -93
-58 -97 -7 -4 -9 -8 -5 -8 7 0 -28 -69 -111 -222 l-21 -38 33 0 c17 -1 95 -1
172 0 218 1 399 -1 401 -3 1 -1 -15 -37 -36 -80 -21 -43 -38 -80 -39 -83 0 -2
-28 -61 -61 -130 -33 -69 -60 -129 -60 -135 0 -5 -5 -9 -10 -9 -6 0 -9 -3 -8
-7 1 -5 -12 -38 -30 -76 -18 -37 -32 -70 -32 -73 0 -3 -9 -19 -21 -35 -11 -16
-18 -29 -16 -29 3 0 -14 -39 -38 -87 -23 -49 -60 -124 -80 -168 -37 -78 -109
-230 -196 -410 -24 -49 -44 -92 -44 -95 -1 -3 -24 -52 -52 -110 -28 -58 -70
-145 -93 -195 -23 -49 -47 -98 -52 -108 -8 -16 41 -17 993 -15 l1002 3 13 55
c8 30 15 64 18 75 14 59 98 382 103 395 3 8 7 24 8 35 2 11 24 101 50 200 25
99 48 187 50 195 2 8 13 53 25 100 12 47 23 92 25 100 2 8 14 58 28 110 14 52
28 106 30 120 3 14 11 45 18 70 7 25 13 50 14 55 4 16 65 256 75 297 l10 36
234 1 c128 0 237 1 242 2 5 1 14 1 19 0 13 -2 449 -2 461 0 5 1 14 1 19 0 13
-2 449 -2 461 0 5 1 14 1 19 0 8 -2 515 -1 550 0 6 1 312 0 682 0 l672 -2 10
-37 c32 -125 83 -330 86 -344 2 -9 16 -61 30 -115 15 -54 29 -109 31 -123 3
-14 12 -48 20 -76 8 -28 17 -61 19 -73 9 -38 13 -55 45 -181 18 -69 33 -132
35 -140 2 -8 20 -79 40 -158 20 -78 38 -150 40 -160 2 -9 11 -44 20 -77 17
-61 23 -85 31 -120 2 -11 17 -69 33 -130 l28 -110 1002 -3 1002 -2 -16 30 c-8
16 -16 32 -16 35 0 2 -24 53 -53 112 -30 59 -70 144 -91 188 -21 44 -61 130
-90 190 -29 61 -76 160 -105 220 -29 61 -77 162 -107 225 -31 63 -76 158 -100
210 -25 52 -65 137 -89 188 -24 51 -44 97 -44 102 0 6 -4 10 -10 10 -5 0 -10
5 -10 12 0 6 -18 48 -39 92 -22 45 -54 113 -71 151 -18 39 -34 73 -37 77 -3 6
129 9 320 9 9 0 61 0 115 0 53 0 115 0 136 -1 31 -1 37 2 29 12 -5 7 -40 70
-76 140 -37 70 -77 146 -90 170 -13 24 -55 102 -92 173 -38 72 -80 150 -95
175 -14 25 -32 60 -39 78 -7 17 -21 32 -30 33 -9 0 -137 1 -285 2 -227 2 -270
4 -277 17 -5 8 -41 83 -80 165 -39 83 -95 200 -125 262 -29 61 -74 155 -100
210 -63 133 -126 266 -189 398 -29 61 -79 164 -110 230 -86 181 -142 299 -195
410 -192 401 -250 525 -250 536 0 5 -4 9 -10 9 -5 0 -10 5 -10 11 0 11 -18 50
-137 299 -36 74 -83 173 -105 219 -102 217 -121 257 -125 264 -2 4 82 7 187 7
106 -1 195 1 198 4 2 3 0 11 -5 18 -6 7 -38 65 -71 128 -34 63 -80 151 -104
195 l-43 80 -183 1 c-100 1 -184 3 -186 5 -5 7 -79 154 -76 154 4 0 -24 60
-35 75 -7 8 -19 33 -28 55 -8 22 -49 110 -90 195 -209 434 -277 580 -277 591
0 5 56 9 128 8 70 0 131 0 135 0 7 1 -105 224 -122 243 -4 5 -66 8 -139 9
l-132 0 -21 47 c-12 26 -55 117 -96 202 -108 223 -137 284 -137 292 -2 20 -31
30 -85 30 -166 -2 -154 0 -148 -24 3 -13 19 -75 35 -138 61 -233 102 -394 102
-401 0 -4 -117 -8 -260 -8 -170 -1 -260 3 -260 9 0 6 9 46 20 89 11 43 23 87
25 97 2 10 25 98 49 194 25 96 44 175 43 176 -6 6 -120 8 -166 4z m620 -828
c0 -4 2 -14 4 -22 2 -8 6 -24 8 -35 3 -11 28 -110 57 -220 28 -110 54 -210 56
-223 3 -12 20 -83 39 -157 19 -74 51 -196 70 -271 20 -76 33 -139 31 -142 -4
-4 -1074 -6 -1175 -3 -19 1 -22 5 -17 24 4 12 9 33 12 47 3 14 7 33 10 42 3 9
7 25 9 35 2 10 12 45 21 78 9 33 17 67 19 75 2 8 8 35 14 60 7 25 13 52 15 60
2 8 32 123 66 255 34 132 63 247 65 255 2 8 11 45 20 82 l17 66 329 0 c181 1
329 -2 330 -6z m384 -1524 c8 -30 22 -88 36 -140 6 -24 15 -58 21 -76 5 -19
11 -44 13 -55 2 -12 17 -76 35 -142 17 -66 32 -127 34 -135 1 -8 8 -35 15 -60
7 -25 15 -52 17 -60 2 -8 10 -44 19 -80 9 -35 17 -71 19 -80 2 -8 5 -22 9 -30
6 -18 26 -96 31 -125 2 -11 14 -56 26 -100 12 -44 23 -91 26 -105 3 -14 8 -34
11 -45 4 -11 8 -24 9 -30 4 -22 74 -292 83 -322 5 -18 7 -33 4 -33 -3 0 0 -7
7 -15 7 -8 10 -15 7 -15 -2 0 4 -33 15 -72 10 -40 21 -82 23 -92 3 -11 34
-137 71 -280 36 -144 67 -268 69 -276 2 -8 16 -60 30 -115 24 -88 42 -161 76
-300 5 -22 13 -56 18 -76 4 -19 11 -40 14 -46 7 -10 10 -26 19 -88 3 -20 -3
-20 -1474 -21 l-1478 -1 6 26 c4 14 17 69 31 121 13 52 26 102 28 110 11 48
37 148 41 165 10 34 23 89 29 120 4 17 9 37 12 45 4 8 6 18 5 22 -1 4 3 20 9
35 6 15 13 37 15 48 2 11 6 29 8 40 3 11 23 92 46 180 23 88 43 167 45 175 2
8 56 222 120 475 64 253 119 469 121 480 11 43 13 50 14 50 1 0 4 11 6 25 3
14 29 120 59 235 55 215 146 572 150 590 1 6 7 29 14 53 l12 42 709 0 709 0 6
-22z"/>
<path d="M13717 13724 c-2 -2 -43 -6 -93 -9 -96 -7 -122 -9 -199 -19 -74 -10
-107 -15 -135 -20 -14 -3 -41 -8 -60 -10 -186 -27 -534 -126 -745 -211 -11 -4
-25 -9 -32 -11 -7 -1 -31 -11 -55 -22 -24 -11 -59 -27 -78 -35 -80 -34 -150
-69 -155 -78 -4 -5 -12 -9 -20 -9 -35 0 -386 -213 -554 -337 -56 -42 -176
-135 -181 -141 -3 -4 -34 -31 -70 -61 -67 -56 -385 -371 -375 -371 3 0 -13
-20 -36 -45 -23 -24 -49 -55 -57 -67 -9 -13 -19 -25 -22 -28 -14 -11 -131
-170 -184 -250 -30 -47 -64 -96 -74 -110 -11 -14 -22 -35 -26 -47 -4 -13 -12
-23 -17 -23 -5 0 -9 -4 -9 -10 0 -5 -19 -42 -43 -82 -60 -102 -156 -300 -216
-445 -43 -106 -137 -379 -146 -423 -2 -8 -9 -35 -16 -60 -14 -51 -15 -55 -22
-90 -3 -14 -12 -56 -21 -95 -8 -38 -20 -97 -26 -130 -5 -33 -12 -71 -15 -84
-2 -13 -7 -49 -11 -80 -3 -31 -8 -65 -10 -76 -3 -11 -7 -58 -9 -105 -3 -47 -7
-98 -10 -115 -5 -36 -5 -376 0 -460 6 -86 14 -174 19 -220 3 -22 8 -60 11 -85
3 -25 12 -81 20 -125 9 -44 17 -89 19 -100 68 -372 240 -842 423 -1153 24 -40
43 -75 43 -77 0 -5 138 -223 152 -240 4 -5 43 -57 85 -115 43 -58 84 -113 93
-123 108 -131 153 -180 291 -317 150 -150 167 -165 284 -259 38 -31 79 -64 89
-73 34 -31 263 -188 274 -188 6 0 12 -3 14 -8 3 -8 75 -54 158 -102 70 -39
362 -185 386 -193 11 -3 53 -20 94 -37 140 -59 490 -170 583 -185 12 -2 66
-13 120 -24 122 -26 131 -27 242 -41 50 -6 104 -13 120 -15 161 -24 630 -24
815 0 19 2 58 7 86 10 29 3 60 7 70 9 11 2 53 9 94 16 365 58 778 196 1135
378 127 65 229 123 233 134 2 5 9 8 15 8 9 0 116 65 152 92 6 5 47 34 92 66
45 31 92 66 105 77 13 11 41 33 63 49 22 16 50 38 61 50 12 12 41 37 65 56 45
35 305 292 370 365 58 66 202 247 234 295 17 25 33 47 38 48 4 2 7 8 7 13 0 6
11 22 25 37 14 15 25 31 25 35 0 5 11 23 25 41 14 18 25 35 25 39 0 3 15 28
33 55 18 27 46 76 62 108 17 33 33 61 36 64 7 5 123 240 124 250 1 3 11 28 24
55 13 28 34 79 47 115 14 36 29 74 34 85 14 31 93 276 105 329 35 145 74 320
79 352 3 21 7 48 10 59 4 19 15 107 22 170 1 17 5 50 8 75 16 134 23 516 11
620 -2 19 -6 69 -9 110 -4 41 -9 91 -11 110 -3 19 -7 55 -10 80 -3 25 -10 68
-15 95 -5 28 -11 61 -14 75 -14 82 -22 118 -53 240 -19 74 -36 142 -38 150
-12 59 -120 355 -167 459 -71 157 -200 407 -238 461 -11 16 -20 31 -20 34 0
12 -205 311 -235 342 -5 6 -21 26 -35 44 -14 18 -29 38 -35 44 -5 6 -35 40
-65 76 -184 216 -464 475 -660 610 -19 13 -37 27 -40 30 -3 4 -20 15 -37 25
-18 11 -33 23 -33 27 0 4 -5 8 -10 8 -6 0 -43 22 -83 49 -40 26 -94 60 -122
75 -27 15 -66 37 -85 48 -95 56 -368 185 -475 225 -131 49 -263 95 -285 99
-14 2 -36 9 -50 14 -27 10 -102 31 -135 37 -11 3 -24 6 -30 7 -5 2 -23 6 -40
10 -115 27 -129 30 -205 41 -19 3 -55 10 -80 15 -25 5 -67 12 -95 14 -27 3
-72 8 -100 11 -27 3 -72 8 -100 11 -59 6 -513 13 -518 8z m493 -888 c36 -4 76
-10 90 -12 14 -3 41 -7 60 -9 19 -2 46 -6 60 -8 14 -3 43 -8 65 -11 22 -3 85
-17 140 -31 55 -14 111 -28 124 -31 14 -3 28 -7 33 -10 4 -3 17 -7 28 -9 22
-4 131 -40 165 -55 11 -4 47 -18 80 -31 143 -54 381 -177 507 -261 31 -21 61
-38 67 -38 5 0 11 -3 13 -8 2 -4 33 -29 70 -55 36 -26 73 -53 80 -59 7 -7 34
-29 58 -48 125 -97 393 -367 459 -463 8 -12 21 -28 29 -36 7 -8 21 -26 30 -40
9 -14 20 -30 25 -36 36 -47 77 -105 77 -109 0 -2 17 -31 38 -63 54 -81 148
-257 201 -376 96 -215 186 -509 216 -704 2 -13 7 -42 11 -65 4 -24 9 -54 11
-68 6 -45 21 -237 26 -346 l3 -62 -171 -83 c-93 -46 -172 -84 -175 -84 -3 -1
-31 -13 -64 -28 -32 -15 -60 -27 -62 -27 -2 0 -27 -11 -56 -24 -53 -24 -234
-96 -253 -100 -5 -2 -48 -14 -95 -29 -155 -47 -307 -80 -445 -94 -126 -13
-489 -4 -515 12 -4 3 -25 7 -46 10 -68 11 -78 13 -144 30 -36 9 -72 19 -80 20
-8 2 -16 4 -17 4 -2 1 -5 1 -8 2 -2 0 -55 18 -117 40 -62 22 -120 41 -128 44
-23 5 -119 46 -228 96 -35 16 -65 29 -68 29 -2 0 -125 59 -272 131 -518 255
-640 310 -837 381 -60 22 -114 41 -120 42 -5 2 -17 6 -25 9 -22 10 -260 68
-295 73 -16 2 -40 6 -53 8 -101 21 -405 27 -537 13 -207 -24 -484 -101 -734
-204 -116 -48 -322 -143 -483 -224 l-78 -39 -1 33 c-1 17 -1 34 -1 37 5 102
14 232 17 251 4 25 14 103 21 154 2 17 6 41 9 55 3 14 7 37 10 52 14 73 46
203 79 313 2 6 6 24 11 40 4 17 10 35 14 40 3 6 6 13 7 18 1 4 3 9 4 12 1 3 3
8 4 13 11 50 195 458 214 472 4 3 14 19 22 35 22 45 123 199 132 203 4 2 8 9
8 16 0 7 9 21 20 31 11 10 20 24 20 31 0 7 4 14 8 16 5 2 28 28 51 58 96 123
282 320 387 410 141 122 311 245 458 333 79 47 278 147 292 147 7 0 14 3 16 8
9 21 385 154 503 177 17 3 39 9 50 12 11 4 25 8 30 9 39 8 159 30 210 38 82
13 106 16 180 21 44 4 81 8 82 9 6 6 420 -1 483 -8z"/>
</g>
</svg>
